<?xml version="1.0" encoding="UTF-8" standalone="no"?>
<!DOCTYPE svg PUBLIC "-//W3C//DTD SVG 1.0//EN" "http://www.w3.org/TR/2001/PR-SVG-20010719/DTD/svg10.dtd">
<svg width="21cm" height="16cm" viewBox="44 142 414 305" xmlns="http://www.w3.org/2000/svg" xmlns:xlink="http://www.w3.org/1999/xlink">
  <g>
    <ellipse style="fill: #ffffff" cx="70.6" cy="287.1" rx="6" ry="6"/>
    <ellipse style="fill: none; fill-opacity:0; stroke-width: 2; stroke: #000000" cx="70.6" cy="287.1" rx="6" ry="6"/>
    <line style="fill: none; fill-opacity:0; stroke-width: 2; stroke: #000000" x1="46.6" y1="299.1" x2="94.6" y2="299.1"/>
    <line style="fill: none; fill-opacity:0; stroke-width: 2; stroke: #000000" x1="70.6" y1="293.1" x2="70.6" y2="323.1"/>
    <line style="fill: none; fill-opacity:0; stroke-width: 2; stroke: #000000" x1="70.6" y1="323.1" x2="46.6" y2="349.1"/>
    <line style="fill: none; fill-opacity:0; stroke-width: 2; stroke: #000000" x1="70.6" y1="323.1" x2="94.6" y2="349.1"/>
    <text font-size="12.8" style="fill: #000000;text-anchor:middle;font-family:sans-serif;font-style:normal;font-weight:normal" x="70.6" y="373">
      <tspan x="70.6" y="373">Actor</tspan>
    </text>
  </g>
  <g>
    <path style="fill: #c9c9b6" d="M 181.918 329.296 L 215.913,329.296 L 201.619,343.638 L 167.624,343.638 L 181.918,329.296z"/>
    <path style="fill: none; fill-opacity:0; stroke-width: 0.02; stroke: #494936" d="M 181.918 329.296 L 215.913,329.296 L 201.619,343.638 L 167.624,343.638 L 181.918,329.296"/>
    <path style="fill: none; fill-opacity:0; stroke-width: 0.02; stroke: #dbdbce" d="M 183.223 341.216 L 183.223,341.292 L 183.237,341.354 L 183.258,341.438 L 183.285,341.521 L 183.327,341.583 L 183.376,341.66 L 183.438,341.729 L 183.501,341.792 L 183.563,341.868 L 183.646,341.944 L 183.73,342.007 L 183.82,342.062 L 183.924,342.118 L 184.021,342.18 L 184.146,342.229 L 184.257,342.292 L 184.382,342.34 L 184.521,342.389 L 184.66,342.43 L 184.792,342.472 L 184.938,342.514 L 185.083,342.555 L 185.236,342.576 L 185.403,342.604 L 185.562,342.618 L 185.729,342.646 L 185.882,342.666 L 186.055,342.687 L 186.229,342.694 L 186.395,342.701 L 186.562,342.701"/>
    <path style="fill: none; fill-opacity:0; stroke-width: 0.02; stroke: #dbdbce" d="M 186.194 342.701 L 186.361,342.701 L 186.52,342.694 L 186.68,342.68 L 186.847,342.659 L 187.013,342.646 L 187.166,342.618 L 187.319,342.604 L 187.478,342.569 L 187.624,342.535 L 187.777,342.493 L 187.909,342.451 L 188.048,342.41 L 188.179,342.361 L 188.304,342.312 L 188.415,342.264 L 188.533,342.208 L 188.645,342.146 L 188.742,342.09 L 188.839,342.021 L 188.922,341.951 L 188.999,341.882 L 189.061,341.819 L 189.131,341.743 L 189.186,341.667 L 189.228,341.604 L 189.276,341.528 L 189.297,341.438 L 189.318,341.361 L 189.339,341.292 L 189.346,341.216"/>
    <path style="fill: none; fill-opacity:0; stroke-width: 0.02; stroke: #dbdbce" d="M 186.93 338.432 L 186.756,338.432 L 186.59,338.439 L 186.416,338.439 L 186.263,338.453 L 186.097,338.473 L 185.93,338.487 L 185.771,338.501 L 185.604,338.536 L 185.458,338.564 L 185.312,338.584 L 185.167,338.619 L 185.021,338.661 L 184.889,338.696 L 184.764,338.737 L 184.639,338.793 L 184.5,338.834 L 184.403,338.883 L 184.292,338.925 L 184.188,338.98 L 184.104,339.043 L 184.014,339.098 L 183.938,339.147 L 183.862,339.209 L 183.806,339.272 L 183.75,339.341 L 183.695,339.404 L 183.667,339.459 L 183.632,339.529 L 183.612,339.584 L 183.605,339.661 L 183.598,339.716"/>
    <path style="fill: none; fill-opacity:0; stroke-width: 0.02; stroke: #dbdbce" d="M 189.707 339.716 L 189.707,339.654 L 189.7,339.584 L 189.672,339.522 L 189.644,339.445 L 189.61,339.39 L 189.554,339.313 L 189.498,339.258 L 189.443,339.188 L 189.36,339.14 L 189.297,339.07 L 189.214,339.015 L 189.103,338.966 L 189.012,338.897 L 188.908,338.862 L 188.797,338.807 L 188.672,338.751 L 188.54,338.709 L 188.409,338.668 L 188.277,338.633 L 188.138,338.605 L 187.992,338.571 L 187.839,338.536 L 187.694,338.515 L 187.541,338.487 L 187.388,338.473 L 187.228,338.453 L 187.062,338.439 L 186.888,338.439 L 186.722,338.432 L 186.562,338.432"/>
    <path style="fill: #a5a585" d="M 167.624 345.124 L 201.619,345.124 L 201.619,343.638 L 167.624,343.638 L 167.624,345.124z"/>
    <path style="fill: none; fill-opacity:0; stroke-width: 0.02; stroke: #494936" d="M 167.624 345.124 L 201.619,345.124 L 201.619,343.638 L 167.624,343.638 L 167.624,345.124"/>
    <path style="fill: #a5a585" d="M 181.918 329.296 L 215.913,329.296 L 215.913,306.04 L 181.918,306.04 L 181.918,329.296z"/>
    <path style="fill: none; fill-opacity:0; stroke-width: 0.02; stroke: #494936" d="M 181.918 329.296 L 215.913,329.296 L 215.913,306.04 L 181.918,306.04 L 181.918,329.296"/>
    <path style="fill: #7a7a5a" d="M 216.843 328.38 L 216.843,305.124 L 215.913,306.04 L 215.913,329.296 L 216.843,328.38z"/>
    <path style="fill: none; fill-opacity:0; stroke-width: 0.02; stroke: #494936" d="M 216.843 328.38 L 216.843,305.124 L 215.913,306.04 L 215.913,329.296 L 216.843,328.38"/>
    <path style="fill: #ffffff" d="M 183.598 327.817 L 214.247,327.817 L 214.247,307.908 L 183.598,307.908 L 183.598,327.817z"/>
    <path style="fill: none; fill-opacity:0; stroke-width: 0.02; stroke: #494936" d="M 183.598 327.817 L 214.247,327.817 L 214.247,307.908 L 183.598,307.908 L 183.598,327.817"/>
    <path style="fill: #93936c" d="M 183.598 330.421 L 212.192,330.421 L 204.764,337.869 L 176.17,337.869 L 183.598,330.421z"/>
    <path style="fill: none; fill-opacity:0; stroke-width: 0.02; stroke: #494936" d="M 183.598 330.421 L 212.192,330.421 L 204.764,337.869 L 176.17,337.869 L 183.598,330.421"/>
    <path style="fill: #7a7a5a" d="M 188.048 340.743 L 188.048,340.702 L 188.041,340.66 L 188.034,340.619 L 188.013,340.57 L 188.006,340.528 L 187.978,340.494 L 187.964,340.452 L 187.93,340.424 L 187.895,340.382 L 187.874,340.341 L 187.839,340.306 L 187.798,340.271 L 187.756,340.23 L 187.707,340.195 L 187.666,340.174 L 187.617,340.14 L 187.562,340.112 L 187.499,340.091 L 187.451,340.056 L 187.388,340.042 L 187.326,340.015 L 187.27,340.001 L 187.201,339.98 L 187.138,339.966 L 187.062,339.952 L 186.999,339.931 L 186.93,339.924 L 186.867,339.924 L 186.798,339.917 L 186.715,339.917 L 186.659,339.917 L 186.659,339.917 L 186.583,339.917 L 186.506,339.917 L 186.444,339.924 L 186.375,339.924 L 186.312,339.931 L 186.236,339.952 L 186.173,339.966 L 186.104,339.98 L 186.041,340.001 L 185.979,340.015 L 185.923,340.042 L 185.854,340.056 L 185.805,340.091 L 185.75,340.112 L 185.694,340.14 L 185.646,340.174 L 185.604,340.195 L 185.555,340.23 L 185.514,340.271 L 185.479,340.306 L 185.43,340.341 L 185.41,340.382 L 185.368,340.424 L 185.347,340.452 L 185.326,340.494 L 185.305,340.528 L 185.292,340.57 L 185.285,340.619 L 185.271,340.66 L 185.257,340.702 L 185.257,340.743 L 185.257,340.743 L 185.257,340.792 L 185.271,340.834 L 185.285,340.875 L 185.292,340.917 L 185.305,340.959 L 185.326,340.993 L 185.347,341.042 L 185.368,341.077 L 185.41,341.118 L 185.43,341.146 L 185.479,341.188 L 185.514,341.222 L 185.555,341.264 L 185.604,341.292 L 185.646,341.32 L 185.694,341.354 L 185.75,341.382 L 185.805,341.403 L 185.854,341.438 L 185.923,341.452 L 185.979,341.479 L 186.041,341.493 L 186.104,341.514 L 186.173,341.528 L 186.236,341.542 L 186.312,341.556 L 186.375,341.57 L 186.444,341.57 L 186.506,341.57 L 186.583,341.577 L 186.659,341.577 L 186.659,341.577 L 186.715,341.577 L 186.798,341.57 L 186.867,341.57 L 186.93,341.57 L 186.999,341.556 L 187.062,341.542 L 187.138,341.528 L 187.201,341.514 L 187.27,341.493 L 187.326,341.479 L 187.388,341.452 L 187.451,341.438 L 187.499,341.403 L 187.562,341.382 L 187.617,341.354 L 187.666,341.32 L 187.707,341.292 L 187.756,341.264 L 187.798,341.222 L 187.839,341.188 L 187.874,341.146 L 187.895,341.118 L 187.93,341.077 L 187.964,341.042 L 187.978,340.993 L 188.006,340.959 L 188.013,340.917 L 188.034,340.875 L 188.041,340.834 L 188.048,340.792 L 188.048,340.743z"/>
    <path style="fill: none; fill-opacity:0; stroke-width: 0.02; stroke: #dbdbce" d="M 187.867 340.66 L 187.867,340.619 L 187.86,340.577 L 187.86,340.542 L 187.839,340.514 L 187.825,340.459 L 187.818,340.438 L 187.784,340.396 L 187.756,340.355 L 187.735,340.327 L 187.707,340.299 L 187.666,340.271 L 187.631,340.223 L 187.589,340.195 L 187.548,340.174 L 187.513,340.14 L 187.457,340.112 L 187.416,340.098 L 187.367,340.063 L 187.319,340.049 L 187.256,340.021 L 187.201,340.008 L 187.138,339.994 L 187.083,339.973 L 187.02,339.959 L 186.958,339.952 L 186.888,339.931 L 186.833,339.924 L 186.756,339.917 L 186.701,339.917 L 186.631,339.917 L 186.569,339.917 L 186.569,339.917 L 186.499,339.917 L 186.437,339.917 L 186.368,339.917 L 186.312,339.924 L 186.243,339.931 L 186.187,339.952 L 186.111,339.959 L 186.055,339.973 L 186.007,339.994 L 185.937,340.008 L 185.882,340.021 L 185.812,340.049 L 185.778,340.063 L 185.715,340.098 L 185.673,340.112 L 185.625,340.14 L 185.583,340.174 L 185.541,340.195 L 185.5,340.223 L 185.465,340.271 L 185.43,340.299 L 185.403,340.327 L 185.368,340.355 L 185.354,340.396 L 185.326,340.438 L 185.312,340.459 L 185.299,340.514 L 185.285,340.542 L 185.278,340.577 L 185.271,340.619 L 185.271,340.66 L 185.271,340.66 L 185.271,340.695 L 185.278,340.737 L 185.285,340.778 L 185.299,340.799 L 185.312,340.841 L 185.326,340.882 L 185.354,340.917 L 185.368,340.952 L 185.403,340.993 L 185.43,341.014 L 185.465,341.049 L 185.5,341.084 L 185.541,341.118 L 185.583,341.139 L 185.625,341.174 L 185.673,341.195 L 185.715,341.222 L 185.778,341.25 L 185.812,341.264 L 185.882,341.292 L 185.937,341.313 L 186.007,341.32 L 186.055,341.34 L 186.111,341.354 L 186.187,341.361 L 186.243,341.382 L 186.312,341.396 L 186.368,341.396 L 186.437,341.396 L 186.499,341.396 L 186.569,341.396 L 186.569,341.396 L 186.631,341.396 L 186.701,341.396 L 186.756,341.396 L 186.833,341.396 L 186.888,341.382 L 186.958,341.361 L 187.02,341.354 L 187.083,341.34 L 187.138,341.32 L 187.201,341.313 L 187.256,341.292 L 187.319,341.264 L 187.367,341.25 L 187.416,341.222 L 187.457,341.195 L 187.513,341.174 L 187.548,341.139 L 187.589,341.118 L 187.631,341.084 L 187.666,341.049 L 187.707,341.014 L 187.735,340.993 L 187.756,340.952 L 187.784,340.917 L 187.818,340.882 L 187.825,340.841 L 187.839,340.799 L 187.86,340.778 L 187.86,340.737 L 187.867,340.695 L 187.867,340.66"/>
    <path style="fill: none; fill-opacity:0; stroke-width: 0.02; stroke: #626248" d="M 183.417 341.396 L 183.417,341.479 L 183.431,341.542 L 183.459,341.618 L 183.48,341.701 L 183.521,341.771 L 183.563,341.833 L 183.625,341.91 L 183.688,341.986 L 183.757,342.049 L 183.827,342.118 L 183.917,342.18 L 184,342.25 L 184.111,342.305 L 184.216,342.361 L 184.327,342.41 L 184.445,342.472 L 184.577,342.521 L 184.695,342.569 L 184.847,342.611 L 184.986,342.653 L 185.132,342.701 L 185.278,342.736 L 185.43,342.757 L 185.583,342.784 L 185.75,342.812 L 185.909,342.826 L 186.069,342.854 L 186.236,342.868 L 186.409,342.875 L 186.576,342.875 L 186.742,342.875"/>
    <path style="fill: none; fill-opacity:0; stroke-width: 0.02; stroke: #626248" d="M 186.368 342.875 L 186.541,342.875 L 186.701,342.875 L 186.874,342.861 L 187.027,342.84 L 187.187,342.826 L 187.353,342.812 L 187.499,342.784 L 187.659,342.75 L 187.798,342.715 L 187.95,342.687 L 188.096,342.646 L 188.228,342.604 L 188.36,342.555 L 188.485,342.493 L 188.61,342.444 L 188.714,342.389 L 188.825,342.333 L 188.922,342.264 L 189.012,342.208 L 189.103,342.132 L 189.179,342.076 L 189.255,342.007 L 189.318,341.924 L 189.36,341.847 L 189.422,341.785 L 189.45,341.701 L 189.485,341.625 L 189.512,341.542 L 189.512,341.479 L 189.526,341.396"/>
    <path style="fill: none; fill-opacity:0; stroke-width: 0.02; stroke: #626248" d="M 187.11 338.612 L 186.951,338.612 L 186.784,338.619 L 186.617,338.619 L 186.451,338.633 L 186.277,338.654 L 186.111,338.661 L 185.965,338.689 L 185.798,338.709 L 185.646,338.751 L 185.5,338.765 L 185.354,338.807 L 185.215,338.834 L 185.076,338.883 L 184.951,338.925 L 184.826,338.966 L 184.695,339.008 L 184.59,339.057 L 184.479,339.105 L 184.382,339.168 L 184.292,339.223 L 184.209,339.272 L 184.125,339.341 L 184.042,339.39 L 183.993,339.445 L 183.938,339.522 L 183.889,339.577 L 183.848,339.647 L 183.82,339.702 L 183.799,339.765 L 183.792,339.841 L 183.785,339.91"/>
    <path style="fill: none; fill-opacity:0; stroke-width: 0.02; stroke: #626248" d="M 189.901 339.91 L 189.887,339.834 L 189.88,339.765 L 189.866,339.702 L 189.832,339.633 L 189.79,339.57 L 189.741,339.501 L 189.686,339.445 L 189.623,339.383 L 189.554,339.313 L 189.471,339.258 L 189.387,339.195 L 189.297,339.14 L 189.186,339.091 L 189.089,339.043 L 188.971,338.994 L 188.86,338.939 L 188.735,338.897 L 188.603,338.862 L 188.457,338.821 L 188.318,338.793 L 188.179,338.751 L 188.034,338.723 L 187.881,338.696 L 187.714,338.668 L 187.569,338.654 L 187.409,338.633 L 187.242,338.619 L 187.069,338.619 L 186.916,338.612 L 186.742,338.612"/>
    <path style="fill: #7a7a5a" d="M 215.913 330.601 L 201.619,344.943 L 201.619,343.638 L 215.913,329.296 L 215.913,330.601z"/>
    <path style="fill: none; fill-opacity:0; stroke-width: 0.02; stroke: #494936" d="M 215.913 330.601 L 201.619,344.943 L 201.619,343.638 L 215.913,329.296 L 215.913,330.601"/>
    <path style="fill: #7a7a5a" d="M 211.088 328.199 L 211.088,328.553 L 213.872,328.553 L 213.872,328.199 L 211.088,328.199z"/>
    <path style="fill: none; fill-opacity:0; stroke-width: 0.02; stroke: #494936" d="M 211.088 328.199 L 211.088,328.553 L 213.872,328.553 L 213.872,328.199 L 211.088,328.199"/>
    <path style="fill: none; fill-opacity:0; stroke-width: 0.02; stroke: #000000" d="M 210.325 332.281 L 181.918,332.281"/>
    <path style="fill: none; fill-opacity:0; stroke-width: 0.02; stroke: #000000" d="M 208.478 334.149 L 180.071,334.149"/>
    <path style="fill: none; fill-opacity:0; stroke-width: 0.02; stroke: #000000" d="M 206.624 336.009 L 178.211,336.009"/>
    <path style="fill: #c9c9b6" d="M 182.848 305.124 L 216.843,305.124 L 215.913,306.04 L 181.918,306.04 L 182.848,305.124z"/>
    <path style="fill: none; fill-opacity:0; stroke-width: 0.02; stroke: #494936" d="M 182.848 305.124 L 216.843,305.124 L 215.913,306.04 L 181.918,306.04 L 182.848,305.124"/>
  </g>
  <g>
    <rect style="fill: #ffffff" x="321.525" y="305" width="134.95" height="38"/>
    <rect style="fill: none; fill-opacity:0; stroke-width: 2; stroke: #000000" x="321.525" y="305" width="134.95" height="38"/>
    <text font-size="12.7998" style="fill: #000000;text-anchor:middle;font-family:sans-serif;font-style:normal;font-weight:normal" x="389" y="327.9">
      <tspan x="389" y="327.9">Client Web App</tspan>
    </text>
  </g>
  <g>
    <rect style="fill: #ffffff" x="322.6" y="145.1" width="134.95" height="38"/>
    <rect style="fill: none; fill-opacity:0; stroke-width: 2; stroke: #000000" x="322.6" y="145.1" width="134.95" height="38"/>
    <text font-size="12.7998" style="fill: #000000;text-anchor:middle;font-family:sans-serif;font-style:normal;font-weight:normal" x="390.075" y="168">
      <tspan x="390.075" y="168">Server Web App</tspan>
    </text>
  </g>
  <g>
    <line style="fill: none; fill-opacity:0; stroke-width: 2; stroke: #000000" x1="96.5875" y1="323.382" x2="177.433" y2="324.257"/>
    <polyline style="fill: none; fill-opacity:0; stroke-width: 2; stroke: #000000" points="169.615,329.173 179.669,324.282 169.724,319.174 "/>
  </g>
  <g>
    <line style="fill: none; fill-opacity:0; stroke-width: 2; stroke: #000000" x1="216.837" y1="324.437" x2="310.797" y2="324.199"/>
    <polygon style="fill: #000000" points="318.297,324.18 308.309,329.205 310.797,324.199 308.284,319.205 "/>
    <polygon style="fill: none; fill-opacity:0; stroke-width: 2; stroke: #000000" points="318.297,324.18 308.309,329.205 310.797,324.199 308.284,319.205 "/>
  </g>
  <g>
    <line style="fill: none; fill-opacity:0; stroke-width: 2; stroke: #000000" x1="389.134" y1="304.003" x2="389.875" y2="193.833"/>
    <polygon style="fill: #000000" points="389.926,186.333 394.858,196.367 389.875,193.833 384.858,196.299 "/>
    <polygon style="fill: none; fill-opacity:0; stroke-width: 2; stroke: #000000" points="389.926,186.333 394.858,196.367 389.875,193.833 384.858,196.299 "/>
  </g>
  <g>
    <rect style="fill: #ffffff" x="162.9" y="143" width="98.2" height="38"/>
    <rect style="fill: none; fill-opacity:0; stroke-width: 2; stroke: #000000" x="162.9" y="143" width="98.2" height="38"/>
    <text font-size="12.7998" style="fill: #000000;text-anchor:middle;font-family:sans-serif;font-style:normal;font-weight:normal" x="212" y="165.9">
      <tspan x="212" y="165.9">MedlinePlus</tspan>
    </text>
  </g>
  <g>
    <rect style="fill: #ffffff" x="336.675" y="407.1" width="106.05" height="38"/>
    <rect style="fill: none; fill-opacity:0; stroke-width: 2; stroke: #000000" x="336.675" y="407.1" width="106.05" height="38"/>
    <text font-size="12.7998" style="fill: #000000;text-anchor:middle;font-family:sans-serif;font-style:normal;font-weight:normal" x="389.7" y="430">
      <tspan x="389.7" y="430">DBPedia</tspan>
    </text>
  </g>
  <g>
    <line style="fill: none; fill-opacity:0; stroke-width: 2; stroke: #000000" x1="389.137" y1="344.004" x2="389.496" y2="396.36"/>
    <polygon style="fill: #000000" points="389.548,403.86 384.479,393.895 389.496,396.36 394.479,393.826 "/>
    <polygon style="fill: none; fill-opacity:0; stroke-width: 2; stroke: #000000" points="389.548,403.86 384.479,393.895 389.496,396.36 394.479,393.826 "/>
  </g>
  <g>
    <line style="fill: none; fill-opacity:0; stroke-width: 2; stroke: #000000" x1="321.596" y1="163.292" x2="271.83" y2="162.706"/>
    <polygon style="fill: #000000" points="264.33,162.617 274.389,157.735 271.83,162.706 274.271,167.735 "/>
    <polygon style="fill: none; fill-opacity:0; stroke-width: 2; stroke: #000000" points="264.33,162.617 274.389,157.735 271.83,162.706 274.271,167.735 "/>
  </g>
</svg>
