<?xml version="1.0" encoding="UTF-8" standalone="no"?>
<!DOCTYPE svg PUBLIC "-//W3C//DTD SVG 1.0//EN" "http://www.w3.org/TR/2001/PR-SVG-20010719/DTD/svg10.dtd">
<svg width="31cm" height="10cm" viewBox="190 175 601 183" xmlns="http://www.w3.org/2000/svg" xmlns:xlink="http://www.w3.org/1999/xlink">
  <g>
    <rect style="fill: #ffffff" x="191.975" y="315" width="154.05" height="38"/>
    <rect style="fill: none; fill-opacity:0; stroke-width: 2; stroke: #000000" x="191.975" y="315" width="154.05" height="38"/>
    <text font-size="12.7998" style="fill: #000000;text-anchor:middle;font-family:sans-serif;font-style:normal;font-weight:normal" x="269" y="337.9">
      <tspan x="269" y="337.9">Frontend Application</tspan>
    </text>
  </g>
  <g>
    <rect style="fill: #ffffff" x="397.8" y="318.1" width="154.05" height="38"/>
    <rect style="fill: none; fill-opacity:0; stroke-width: 2; stroke: #000000" x="397.8" y="318.1" width="154.05" height="38"/>
    <text font-size="12.7998" style="fill: #000000;text-anchor:middle;font-family:sans-serif;font-style:normal;font-weight:normal" x="474.825" y="341">
      <tspan x="474.825" y="341">Server Application</tspan>
    </text>
  </g>
  <g>
    <rect style="fill: #ffffff" x="636.6" y="318.2" width="154.05" height="38"/>
    <rect style="fill: none; fill-opacity:0; stroke-width: 2; stroke: #000000" x="636.6" y="318.2" width="154.05" height="38"/>
    <text font-size="12.7998" style="fill: #000000;text-anchor:middle;font-family:sans-serif;font-style:normal;font-weight:normal" x="713.625" y="341.1">
      <tspan x="713.625" y="341.1">Hadoop HDFS</tspan>
    </text>
  </g>
  <g>
    <rect style="fill: #ffffff" x="376.15" y="206.3" width="200.55" height="38"/>
    <rect style="fill: none; fill-opacity:0; stroke-width: 2; stroke: #000000" x="376.15" y="206.3" width="200.55" height="38"/>
    <text font-size="12.7998" style="fill: #000000;text-anchor:middle;font-family:sans-serif;font-style:normal;font-weight:normal" x="476.425" y="229.2">
      <tspan x="476.425" y="229.2">Data Processing Module</tspan>
    </text>
  </g>
  <g>
    <path style="fill: #a5a585" d="M 784.784 251.028 L 784.686,249.779 L 784.413,248.549 L 783.945,247.319 L 783.3,246.109 L 782.5,244.899 L 781.504,243.708 L 780.333,242.537 L 778.986,241.385 L 777.464,240.253 L 775.785,239.179 L 773.95,238.105 L 771.978,237.051 L 769.811,236.056 L 767.527,235.099 L 765.107,234.181 L 762.53,233.303 L 759.855,232.483 L 757.044,231.702 L 754.136,230.98 L 751.09,230.297 L 747.986,229.653 L 744.765,229.086 L 741.466,228.54 L 738.128,228.091 L 734.692,227.7 L 731.198,227.369 L 727.684,227.076 L 724.112,226.881 L 720.52,226.705 L 716.908,226.588 L 713.297,226.588 L 713.297,226.588 L 709.666,226.588 L 706.055,226.705 L 702.463,226.881 L 698.89,227.076 L 695.376,227.369 L 691.882,227.7 L 688.466,228.091 L 685.108,228.54 L 681.809,229.086 L 678.588,229.653 L 675.484,230.297 L 672.458,230.98 L 669.55,231.702 L 666.739,232.483 L 664.045,233.303 L 661.468,234.181 L 659.067,235.099 L 656.763,236.056 L 654.616,237.051 L 652.625,238.105 L 650.79,239.179 L 649.111,240.253 L 647.588,241.385 L 646.241,242.537 L 645.07,243.708 L 644.074,244.899 L 643.274,246.109 L 642.63,247.319 L 642.161,248.549 L 641.908,249.779 L 641.81,251.028 L 641.81,251.028 L 641.908,252.278 L 642.161,253.488 L 642.63,254.737 L 643.274,255.948 L 644.074,257.158 L 645.07,258.349 L 646.241,259.52 L 647.588,260.672 L 649.111,261.785 L 650.79,262.878 L 652.625,263.951 L 654.616,265.006 L 656.763,266.001 L 659.067,266.958 L 661.468,267.875 L 664.045,268.754 L 666.739,269.574 L 669.55,270.354 L 672.458,271.077 L 675.484,271.76 L 678.588,272.404 L 681.809,272.97 L 685.108,273.497 L 688.466,273.966 L 691.882,274.356 L 695.376,274.688 L 698.89,274.961 L 702.463,275.176 L 706.055,275.332 L 709.666,275.45 L 713.297,275.469 L 713.297,275.469 L 716.908,275.45 L 720.52,275.332 L 724.112,275.176 L 727.684,274.961 L 731.198,274.688 L 734.692,274.356 L 738.128,273.966 L 741.466,273.497 L 744.765,272.97 L 747.986,272.404 L 751.09,271.76 L 754.136,271.077 L 757.044,270.354 L 759.855,269.574 L 762.53,268.754 L 765.107,267.875 L 767.527,266.958 L 769.811,266.001 L 771.978,265.006 L 773.95,263.951 L 775.785,262.878 L 777.464,261.785 L 778.986,260.672 L 780.333,259.52 L 781.504,258.349 L 782.5,257.158 L 783.3,255.948 L 783.945,254.737 L 784.413,253.488 L 784.686,252.278 L 784.784,251.028z"/>
    <path style="fill: none; fill-opacity:0; stroke-width: 0.02; stroke: #494936" d="M 783.945 250.638 L 783.847,249.389 L 783.593,248.198 L 783.144,246.987 L 782.52,245.797 L 781.68,244.586 L 780.665,243.435 L 779.552,242.263 L 778.186,241.17 L 776.683,240.057 L 775.023,238.964 L 773.188,237.93 L 771.217,236.895 L 769.089,235.919 L 766.844,234.943 L 764.384,234.064 L 761.827,233.205 L 759.153,232.386 L 756.381,231.624 L 753.491,230.921 L 750.485,230.238 L 747.362,229.633 L 744.18,229.067 L 740.9,228.54 L 737.582,228.091 L 734.185,227.7 L 730.691,227.388 L 727.196,227.076 L 723.643,226.9 L 720.09,226.744 L 716.459,226.646 L 712.868,226.588 L 712.868,226.588 L 709.276,226.646 L 705.684,226.744 L 702.092,226.9 L 698.578,227.076 L 695.064,227.388 L 691.589,227.7 L 688.173,228.091 L 684.835,228.54 L 681.575,229.067 L 678.393,229.633 L 675.27,230.238 L 672.263,230.921 L 669.394,231.624 L 666.583,232.386 L 663.889,233.205 L 661.351,234.064 L 658.93,234.943 L 656.685,235.919 L 654.538,236.895 L 652.547,237.93 L 650.751,238.964 L 649.091,240.057 L 647.549,241.17 L 646.222,242.263 L 645.07,243.435 L 644.074,244.586 L 643.255,245.797 L 642.61,246.987 L 642.161,248.198 L 641.908,249.389 L 641.81,250.638 L 641.81,250.638 L 641.908,251.848 L 642.161,253.039 L 642.61,254.269 L 643.255,255.46 L 644.074,256.65 L 645.07,257.822 L 646.222,258.974 L 647.549,260.086 L 649.091,261.179 L 650.751,262.292 L 652.547,263.346 L 654.538,264.342 L 656.685,265.337 L 658.93,266.294 L 661.351,267.192 L 663.889,268.051 L 666.583,268.851 L 669.394,269.632 L 672.263,270.335 L 675.27,271.018 L 678.393,271.643 L 681.575,272.189 L 684.835,272.697 L 688.173,273.146 L 691.589,273.536 L 695.064,273.868 L 698.578,274.161 L 702.092,274.356 L 705.684,274.512 L 709.276,274.61 L 712.868,274.649 L 712.868,274.649 L 716.459,274.61 L 720.09,274.512 L 723.643,274.356 L 727.196,274.161 L 730.691,273.868 L 734.185,273.536 L 737.582,273.146 L 740.9,272.697 L 744.18,272.189 L 747.362,271.643 L 750.485,271.018 L 753.491,270.335 L 756.381,269.632 L 759.153,268.851 L 761.827,268.051 L 764.384,267.192 L 766.844,266.294 L 769.089,265.337 L 771.217,264.342 L 773.188,263.346 L 775.023,262.292 L 776.683,261.179 L 778.186,260.086 L 779.552,258.974 L 780.665,257.822 L 781.68,256.65 L 782.52,255.46 L 783.144,254.269 L 783.593,253.039 L 783.847,251.848 L 783.945,250.638"/>
    <path style="fill: #a5a585" d="M 641.81 199.98 L 641.81,251.458 L 783.945,251.458 L 783.945,199.98 L 641.81,199.98z"/>
    <path style="fill: #c9c9b6" d="M 784.784 199.551 L 784.686,198.282 L 784.413,197.052 L 783.945,195.842 L 783.3,194.631 L 782.5,193.401 L 781.504,192.211 L 780.333,191.02 L 778.986,189.907 L 777.464,188.794 L 775.785,187.662 L 773.95,186.628 L 771.978,185.573 L 769.811,184.558 L 767.527,183.621 L 765.107,182.704 L 762.53,181.806 L 759.855,180.986 L 757.044,180.225 L 754.136,179.483 L 751.09,178.8 L 747.986,178.175 L 744.765,177.609 L 741.466,177.082 L 738.128,176.613 L 734.692,176.223 L 731.198,175.891 L 727.684,175.618 L 724.112,175.403 L 720.52,175.227 L 716.908,175.13 L 713.297,175.11 L 713.297,175.11 L 709.666,175.13 L 706.055,175.227 L 702.463,175.403 L 698.89,175.618 L 695.376,175.891 L 691.882,176.223 L 688.466,176.613 L 685.108,177.082 L 681.809,177.609 L 678.588,178.175 L 675.484,178.8 L 672.458,179.483 L 669.55,180.225 L 666.739,180.986 L 664.045,181.806 L 661.468,182.704 L 659.067,183.621 L 656.763,184.558 L 654.616,185.573 L 652.625,186.628 L 650.79,187.662 L 649.111,188.794 L 647.588,189.907 L 646.241,191.02 L 645.07,192.211 L 644.074,193.401 L 643.274,194.631 L 642.63,195.842 L 642.161,197.052 L 641.908,198.282 L 641.81,199.551 L 641.81,199.551 L 641.908,200.781 L 642.161,202.03 L 642.63,203.221 L 643.274,204.47 L 644.074,205.661 L 645.07,206.871 L 646.241,208.042 L 647.588,209.175 L 649.111,210.307 L 650.79,211.4 L 652.625,212.474 L 654.616,213.508 L 656.763,214.504 L 659.067,215.461 L 661.468,216.398 L 664.045,217.257 L 666.739,218.096 L 669.55,218.877 L 672.458,219.599 L 675.484,220.282 L 678.588,220.927 L 681.809,221.473 L 685.108,222.02 L 688.466,222.469 L 691.882,222.859 L 695.376,223.21 L 698.89,223.464 L 702.463,223.699 L 706.055,223.855 L 709.666,223.952 L 713.297,223.991 L 713.297,223.991 L 716.908,223.952 L 720.52,223.855 L 724.112,223.699 L 727.684,223.464 L 731.198,223.21 L 734.692,222.859 L 738.128,222.469 L 741.466,222.02 L 744.765,221.473 L 747.986,220.927 L 751.09,220.282 L 754.136,219.599 L 757.044,218.877 L 759.855,218.096 L 762.53,217.257 L 765.107,216.398 L 767.527,215.461 L 769.811,214.504 L 771.978,213.508 L 773.95,212.474 L 775.785,211.4 L 777.464,210.307 L 778.986,209.175 L 780.333,208.042 L 781.504,206.871 L 782.5,205.661 L 783.3,204.47 L 783.945,203.221 L 784.413,202.03 L 784.686,200.781 L 784.784,199.551z"/>
    <path style="fill: none; fill-opacity:0; stroke-width: 0.02; stroke: #494936" d="M 783.945 199.16 L 783.847,197.911 L 783.593,196.72 L 783.144,195.529 L 782.52,194.319 L 781.68,193.089 L 780.665,191.937 L 779.552,190.825 L 778.186,189.673 L 776.683,188.58 L 775.023,187.467 L 773.188,186.452 L 771.217,185.417 L 769.089,184.422 L 766.844,183.504 L 764.384,182.587 L 761.827,181.747 L 759.153,180.927 L 756.381,180.146 L 753.491,179.424 L 750.485,178.76 L 747.362,178.155 L 744.18,177.589 L 740.9,177.082 L 737.582,176.613 L 734.185,176.223 L 730.691,175.891 L 727.196,175.618 L 723.643,175.403 L 722.453,175.344 L 703.283,175.344 L 702.092,175.403 L 698.578,175.618 L 695.064,175.891 L 691.589,176.223 L 688.173,176.613 L 684.835,177.082 L 681.575,177.589 L 678.393,178.155 L 675.27,178.76 L 672.263,179.424 L 669.394,180.146 L 666.583,180.927 L 663.889,181.747 L 661.351,182.587 L 658.93,183.504 L 656.685,184.422 L 654.538,185.417 L 652.547,186.452 L 650.751,187.467 L 649.091,188.58 L 647.549,189.673 L 646.222,190.825 L 645.07,191.937 L 644.074,193.089 L 643.255,194.319 L 642.61,195.529 L 642.161,196.72 L 641.908,197.911 L 641.81,199.16 L 641.81,199.16 L 641.908,200.351 L 642.161,201.581 L 642.61,202.791 L 643.255,203.982 L 644.074,205.173 L 645.07,206.344 L 646.222,207.476 L 647.549,208.628 L 649.091,209.721 L 650.751,210.814 L 652.547,211.869 L 654.538,212.864 L 656.685,213.84 L 658.93,214.816 L 661.351,215.714 L 663.889,216.554 L 666.583,217.354 L 669.394,218.135 L 672.263,218.838 L 675.27,219.521 L 678.393,220.165 L 681.575,220.673 L 684.835,221.219 L 688.173,221.649 L 691.589,222.059 L 695.064,222.41 L 698.578,222.683 L 702.092,222.898 L 705.684,223.035 L 709.276,223.113 L 712.868,223.171 L 712.868,223.171 L 716.459,223.113 L 720.09,223.035 L 723.643,222.898 L 727.196,222.683 L 730.691,222.41 L 734.185,222.059 L 737.582,221.649 L 740.9,221.219 L 744.18,220.673 L 747.362,220.165 L 750.485,219.521 L 753.491,218.838 L 756.381,218.135 L 759.153,217.354 L 761.827,216.554 L 764.384,215.714 L 766.844,214.816 L 769.089,213.84 L 771.217,212.864 L 773.188,211.869 L 775.023,210.814 L 776.683,209.721 L 778.186,208.628 L 779.552,207.476 L 780.665,206.344 L 781.68,205.173 L 782.52,203.982 L 783.144,202.791 L 783.593,201.581 L 783.847,200.351 L 783.945,199.16"/>
    <path style="fill: none; fill-opacity:0; stroke-width: 0.02; stroke: #000000" d="M 641.81 199.16 L 641.81,250.599"/>
    <path style="fill: none; fill-opacity:0; stroke-width: 0.02; stroke: #000000" d="M 783.945 199.16 L 783.945,250.599"/>
  </g>
  <text font-size="12.7998" style="fill: #000000;text-anchor:start;font-family:sans-serif;font-style:normal;font-weight:normal" x="654.021" y="254.356">
    <tspan x="654.021" y="254.356">MongoDB database</tspan>
  </text>
  <g>
    <line style="fill: none; fill-opacity:0; stroke-width: 2; stroke: #000000" x1="347.024" y1="335.878" x2="393.329" y2="336.992"/>
    <polyline style="fill: none; fill-opacity:0; stroke-width: 2; stroke: #000000" points="385.447,341.804 395.565,337.046 385.688,331.807 "/>
  </g>
  <g>
    <line style="fill: none; fill-opacity:0; stroke-width: 2; stroke: #000000" x1="475.111" y1="317.106" x2="476.075" y2="249.765"/>
    <polyline style="fill: none; fill-opacity:0; stroke-width: 2; stroke: #000000" points="480.963,257.6 476.107,247.529 470.964,257.457 "/>
  </g>
  <g>
    <line style="fill: none; fill-opacity:0; stroke-width: 2; stroke: #000000" x1="552.846" y1="337.133" x2="631.132" y2="337.165"/>
    <polyline style="fill: none; fill-opacity:0; stroke-width: 2; stroke: #000000" points="623.366,342.162 633.368,337.166 623.37,332.162 "/>
  </g>
  <g>
    <line style="fill: none; fill-opacity:0; stroke-width: 2; stroke: #000000" x1="577.702" y1="225.242" x2="637.323" y2="225.208"/>
    <polyline style="fill: none; fill-opacity:0; stroke-width: 2; stroke: #000000" points="629.562,230.213 639.559,225.207 629.557,220.213 "/>
  </g>
  <g>
    <line style="fill: none; fill-opacity:0; stroke-width: 2; stroke: #000000" x1="713.191" y1="279.747" x2="713.44" y2="312.727"/>
    <polyline style="fill: none; fill-opacity:0; stroke-width: 2; stroke: #000000" points="718.249,287.473 713.174,277.511 708.249,287.548 "/>
    <polyline style="fill: none; fill-opacity:0; stroke-width: 2; stroke: #000000" points="708.381,305.001 713.457,314.963 718.381,304.925 "/>
  </g>
</svg>
